<?xml version="1.0" encoding="utf-8"?>
<!-- Generator: Adobe Illustrator 16.0.0, SVG Export Plug-In . SVG Version: 6.00 Build 0)  -->
<!DOCTYPE svg PUBLIC "-//W3C//DTD SVG 1.0//EN" "http://www.w3.org/TR/2001/REC-SVG-20010904/DTD/svg10.dtd">
<svg version="1.0" id="Layer_1" xmlns="http://www.w3.org/2000/svg" xmlns:xlink="http://www.w3.org/1999/xlink" x="0px" y="0px"
	 width="300px" height="56.256px" viewBox="0 0 300 56.256" enable-background="new 0 0 300 56.256" xml:space="preserve">
<g>
	<path fill="#FFFFFF" d="M141.309,0.987h12.357c0.019,3.074,0.048,6.057,0.066,9.064c0.019,3.028,0.004,6.057,0.004,9.086v9.086
		v9.086v9.266c4.259,0.044,8.473,0.014,12.687,0.02c4.188,0.006,8.376,0.001,12.658,0.001v9.556h-37.772V0.987z"/>
	<path fill="#FFFFFF" d="M52.592,1.061L40.135,1.187c0,0,0.059,47.113,0.059,54.976h12.398C52.614,54.64,52.592,1.061,52.592,1.061"
		/>
	<path fill="#FFFFFF" d="M234.895,21.017c-1.87-7.722-6.149-13.541-13.376-17.062c-4.385-2.136-9.08-2.953-13.911-2.993
		c-2.811-0.024-5.958-0.031-9.151-0.03v9.781c1.032,0,2.525-0.002,3.001,0.002c2.596,0.024,5.195-0.013,7.789,0.093
		c3.369,0.138,6.399,1.252,8.961,3.494c2.169,1.899,3.556,4.319,4.272,7.057c1.348,5.147,1.383,10.322-0.328,15.407
		c-1.726,5.126-5.236,8.36-10.599,9.454c-1.049,0.214-2.134,0.334-3.205,0.353c-2.756,0.051-5.514,0.021-8.271,0.02
		c-0.12,0-0.954-0.013-1.62-0.028v9.672c3.409,0,6.784,0.004,9.786,0.019c2.527,0.013,5.018-0.199,7.479-0.754
		c4.321-0.975,8.208-2.817,11.487-5.828c5.305-4.869,7.768-11.088,8.352-18.092C235.854,28.055,235.741,24.509,234.895,21.017"/>
	<path fill="#FFFFFF" d="M27.083,30.371H12.429V15.302c0-2.391,0.008-4.782-0.002-7.173c-0.011-2.369,0.048-4.741-0.039-7.098H0
		v55.113h12.486V40.32h14.596V30.371z"/>
	<path fill="#FFFFFF" d="M98.008,0h-2.244C87.081,18.706,78.338,37.386,69.62,56.168h12.352C82.375,55.257,94.314,28.89,96.7,23.726
		c0.014,0.002,0.027,0.001,0.042,0c0.024,0.001,0.306,0.002,0.331,0c2.385,5.164,14.324,31.531,14.729,32.442h12.352
		C115.433,37.386,106.691,18.706,98.008,0"/>
	<path fill="#FFFFFF" d="M273.392,0h-2.244c-8.684,18.706-17.426,37.386-26.145,56.168h12.351
		c0.405-0.911,12.344-27.278,14.729-32.442c0.013,0.002,0.027,0.001,0.041,0c0.025,0.001,0.306,0.002,0.331,0
		c2.385,5.164,14.324,31.531,14.729,32.442h12.351C290.817,37.386,282.075,18.706,273.392,0"/>
</g>
</svg>
